<svg width="177" height="155" viewBox="0 0 177 155" fill="none" xmlns="http://www.w3.org/2000/svg">
<path d="M88.1882 24.0162C88.1882 24.0162 98.0911 23.7469 101.579 25.2977L103.817 21.6899C105.432 21.394 107.091 21.4325 108.691 21.8029C110.29 22.1734 111.797 22.868 113.118 23.8439C115.554 25.6012 117.328 28.1276 118.155 31.0164L115.83 34.118C115.83 34.118 125.518 43.4229 127.455 50.7893C129.393 58.1557 129.393 68.236 129.393 68.236V115.127C129.393 115.127 126.454 129.989 116.013 136.816C105.572 143.644 96.7994 144.226 96.7994 144.226L88.2958 153.262L79.6847 144.237C79.6847 144.237 70.9013 143.687 60.4387 136.838C49.9761 129.989 47.0591 115.137 47.0591 115.137V68.2252C47.0591 68.2252 47.0591 58.1449 48.9966 50.7785C50.9341 43.4121 60.6217 34.1072 60.6217 34.1072L58.2967 31.0056C59.1489 28.103 60.9587 25.5748 63.4311 23.8331C64.7518 22.8572 66.2585 22.1626 67.8581 21.7922C69.4577 21.4217 71.1161 21.3832 72.7311 21.6792L74.9701 25.287C78.4576 23.7362 88.3604 24.0054 88.3604 24.0054" fill="#F3C10E"/>
<path d="M88.1882 24.0162C88.1882 24.0162 98.0911 23.7469 101.579 25.2977L103.817 21.6899C105.432 21.394 107.091 21.4325 108.691 21.8029C110.29 22.1734 111.797 22.868 113.118 23.8439C115.554 25.6012 117.328 28.1276 118.155 31.0164L115.83 34.118C115.83 34.118 125.518 43.4229 127.455 50.7893C129.393 58.1557 129.393 68.236 129.393 68.236V115.127C129.393 115.127 126.454 129.989 116.013 136.816C105.572 143.644 96.7994 144.226 96.7994 144.226L88.2958 153.262L79.6847 144.237C79.6847 144.237 70.9013 143.687 60.4387 136.838C49.9761 129.989 47.0591 115.137 47.0591 115.137V68.2252C47.0591 68.2252 47.0591 58.1449 48.9966 50.7785C50.9341 43.4121 60.6217 34.1072 60.6217 34.1072L58.2967 31.0056C59.1489 28.103 60.9587 25.5748 63.4311 23.8331C64.7518 22.8572 66.2585 22.1626 67.8581 21.7922C69.4577 21.4217 71.1161 21.3832 72.7311 21.6792L74.9701 25.287C78.4576 23.7362 88.3604 24.0054 88.3604 24.0054" stroke="#1D1D1B" stroke-width="2" stroke-miterlimit="10"/>
<path d="M64.2815 23.2192L56.2085 7.17261" stroke="black" stroke-width="5" stroke-miterlimit="10"/>
<path d="M56.2086 14.3235C60.1559 14.3235 63.3558 11.1218 63.3558 7.17247C63.3558 3.22309 60.1559 0.0214844 56.2086 0.0214844C52.2612 0.0214844 49.0613 3.22309 49.0613 7.17247C49.0613 11.1218 52.2612 14.3235 56.2086 14.3235Z" fill="black"/>
<path d="M47.1022 91.7567V95.3645C47.1022 95.3645 32.7645 105.962 19.1158 93.5552C11.3658 86.5765 -0.765212 62.4635 1.21536 48.9692L17.9426 74.9454L47.1022 91.7567Z" fill="#F2F2F0" stroke="#222222" stroke-width="0.5" stroke-miterlimit="10"/>
<path d="M47.791 57.6171C47.3685 61.1379 47.1385 64.6792 47.1021 68.2251V72.3606L17.9425 48.9799L7.24316 40.3643C17.5981 35.5395 35.251 44.4783 47.791 57.6171Z" fill="#F2F2F0" stroke="#222222" stroke-width="0.5" stroke-miterlimit="10"/>
<path d="M47.1022 72.3607V82.1825L20.8381 62.8619L17.9426 48.98L47.1022 72.3607Z" fill="#F2F2F0" stroke="#222222" stroke-width="0.5" stroke-miterlimit="10"/>
<path d="M47.1021 82.1825V91.7566L17.9425 74.9453L1.21533 48.9692C1.46472 46.2162 2.77303 43.6677 4.86432 41.8613C5.59803 41.2827 6.39631 40.7912 7.24315 40.3966L17.9425 49.0123L20.838 62.8942L47.1021 82.1825Z" fill="#F2F2F0" stroke="#222222" stroke-width="0.5" stroke-miterlimit="10"/>
<path d="M158.617 48.9369L155.711 62.8512L129.447 82.1717V72.2637L158.617 48.9369Z" fill="#F2F2F0" stroke="#222222" stroke-width="0.5" stroke-miterlimit="10"/>
<path d="M157.476 93.5443C143.784 105.951 129.49 95.3536 129.49 95.3536V91.7458L158.649 74.9345L175.376 48.9584C177.314 62.4634 165.183 86.5657 157.476 93.5443Z" fill="#F2F2F0" stroke="#222222" stroke-width="0.5" stroke-miterlimit="10"/>
<path d="M175.376 48.9584L158.606 74.9346L129.447 91.7459V82.1717L155.711 62.8512L158.617 48.9369L169.306 40.3859C170.151 40.7821 170.95 41.2735 171.684 41.8505C173.792 43.6496 175.116 46.1991 175.376 48.9584Z" fill="#F2F2F0" stroke="#222222" stroke-width="0.5" stroke-miterlimit="10"/>
<path d="M169.305 40.3858L158.617 48.9368L129.447 72.2637V68.2143C129.41 64.6141 129.173 61.0186 128.736 57.4448C141.265 44.4136 158.983 35.5395 169.305 40.3858Z" fill="#F2F2F0" stroke="#222222" stroke-width="0.5" stroke-miterlimit="10"/>
<path d="M112.256 23.2084L120.329 7.151" stroke="black" stroke-width="5" stroke-miterlimit="10"/>
<path d="M120.329 14.302C124.277 14.302 127.477 11.1004 127.477 7.15098C127.477 3.2016 124.277 0 120.329 0C116.382 0 113.182 3.2016 113.182 7.15098C113.182 11.1004 116.382 14.302 120.329 14.302Z" fill="black"/>
<path d="M129.447 91.6704V108.772C119.953 123.505 98.0589 124.474 98.0589 124.474L88.2422 135.912L78.5008 124.442C78.5008 124.442 56.6069 123.473 47.113 108.74V91.6812C52.5273 104.185 78.5008 105.24 78.5008 105.24L88.3175 116.677L98.0697 105.229C98.0697 105.229 124.022 104.163 129.447 91.6704Z" fill="#222222"/>
<path d="M105.569 37.1149C102.211 36.8564 88.0023 37.1149 88.0023 37.1149C86.9259 37.1149 73.7293 36.8672 70.5001 37.1149C67.2709 37.3626 55 51.5892 55 62.7033V81.4424C55 87.3549 68.4334 91.6519 88.0669 91.6519C107.668 91.6519 121.069 87.3441 121.069 81.4424V62.7033C121.069 51.5892 108.927 37.3733 105.569 37.1149Z" fill="#222222"/>
<path d="M47.8449 56.7555C47.3877 60.4108 47.1397 64.0892 47.1022 67.7728V94.9121C47.1022 94.9121 32.7646 105.509 19.1158 93.1028C11.3658 86.1564 -0.765212 61.968 1.21536 48.5168C1.46475 45.7638 2.77306 43.2154 4.86434 41.4089C5.60044 40.8308 6.39825 40.336 7.24318 39.9335C17.6089 35.0334 35.3048 43.6167 47.8449 56.7555Z" stroke="black" stroke-width="2" stroke-miterlimit="10"/>
<path d="M157.519 93.9105C143.827 106.317 129.533 95.7198 129.533 95.7198V68.5805C129.497 65.0346 129.267 61.4933 128.844 57.9725C141.384 44.8337 159.037 35.8949 169.392 40.7412C170.238 41.1358 171.037 41.6273 171.77 42.2059C173.848 44.0222 175.141 46.5741 175.376 49.3246C177.357 62.7757 165.226 86.9319 157.519 93.9105Z" stroke="black" stroke-width="2" stroke-miterlimit="10"/>
<path d="M63 62L72.5 55L82.5 62" stroke="white" stroke-width="6" stroke-linecap="round" stroke-linejoin="round"/>
<path d="M94.5 62L104.5 55L113.5 62" stroke="white" stroke-width="6" stroke-linecap="round" stroke-linejoin="round"/>
</svg>
