<svg width="82" height="82" viewBox="0 0 82 82" fill="none" xmlns="http://www.w3.org/2000/svg">
<path d="M67.7232 0H14.2768C6.39193 0 0 6.39193 0 14.2768V67.7232C0 75.6081 6.39193 82 14.2768 82H67.7232C75.6081 82 82 75.6081 82 67.7232V14.2768C82 6.39193 75.6081 0 67.7232 0Z" fill="#F3C10E"/>
<path d="M58.1902 14.3302C54.9031 14.0709 40.9695 14.3302 40.9695 14.3302C39.9476 14.3302 26.9749 14.0862 23.8099 14.3302C20.5153 14.5819 8.61035 28.5155 8.61035 39.4061V57.7783C8.61035 63.5744 21.7813 67.7843 41.0306 67.7843C60.2493 67.7843 73.3897 63.5592 73.3897 57.7783V39.4061C73.3897 28.5155 61.4848 14.5819 58.1902 14.3302ZM31.4059 49.2977C31.3069 50.0735 30.9047 50.7786 30.2874 51.2587C29.67 51.7389 28.8876 51.9552 28.1113 51.8602C25.198 51.6009 24.8166 49.3282 24.8166 49.3282V27.7605C24.8166 27.7605 24.9463 25.1064 28.1799 25.1064C31.4136 25.1064 31.4059 27.7605 31.4059 27.7605V49.2977ZM57.1835 49.2977C57.1835 49.2977 56.8021 51.5856 53.8888 51.8297C53.1168 51.9272 52.3374 51.7159 51.7204 51.2417C51.1034 50.7675 50.6986 50.0688 50.5942 49.2977V27.7528C50.5942 27.7528 50.5942 25.0912 53.8202 25.0912C57.0462 25.0912 57.1987 27.7528 57.1987 27.7528L57.1835 49.2977Z" fill="#222222"/>
<path d="M31.4059 27.7603C31.4059 27.7603 31.4059 25.1063 28.1799 25.1063C24.9539 25.1063 24.8167 27.7603 24.8167 27.7603V49.2975C24.8167 49.2975 25.198 51.5855 28.1113 51.8295C28.883 51.925 29.6613 51.7129 30.2778 51.2391C30.8943 50.7653 31.2996 50.0678 31.4059 49.2975V27.7603Z" fill="#F2F2F0"/>
<path d="M50.594 27.7528C50.594 27.7528 50.594 25.0912 53.82 25.0912C57.046 25.0912 57.1985 27.7528 57.1985 27.7528V49.2824C57.1985 49.2824 56.8172 51.5704 53.9039 51.8144C53.1318 51.9119 52.3525 51.7006 51.7355 51.2264C51.1185 50.7522 50.7137 50.0535 50.6093 49.2824L50.594 27.7528Z" fill="#F2F2F0"/>
</svg>
