<svg width="107" height="136" viewBox="0 0 107 136" fill="none" xmlns="http://www.w3.org/2000/svg">
<path d="M63.7262 28.668C63.7262 28.668 68.0586 30.543 69.2534 31.9143L70.9461 30.8058C71.7033 31.0027 72.4121 31.3529 73.0286 31.8345C73.6452 32.3162 74.1564 32.9193 74.5308 33.6065C75.2299 34.8556 75.4885 36.3038 75.2649 37.7181L73.6367 38.5905C73.6367 38.5905 75.9509 44.5584 75.3067 48.1305C74.6625 51.7025 72.6355 56.0574 72.6355 56.0574L63.2066 76.3151C63.2066 76.3151 58.9486 82.1449 53.0649 82.9951C47.1812 83.8454 43.2743 82.3326 43.2743 82.3326L37.7836 84.5263L35.8782 78.8958C35.8782 78.8958 32.194 76.8923 29.0513 71.8294C25.9086 66.7665 27.6347 59.7639 27.6347 59.7639L37.0679 39.4969C37.0679 39.4969 39.0949 35.142 41.4132 32.3491C43.7315 29.5563 49.7877 27.4844 49.7877 27.4844L49.407 25.6769C50.3588 24.5943 51.6491 23.866 53.0674 23.6107C53.8342 23.4547 54.6248 23.4576 55.3904 23.6192C56.1559 23.7808 56.8801 24.0977 57.5184 24.5503L57.7601 26.5591C59.5787 26.5904 63.8028 28.698 63.8028 28.698" fill="#F3C10E"/>
<path d="M63.7262 28.668C63.7262 28.668 68.0586 30.543 69.2534 31.9143L70.9461 30.8058C71.7033 31.0027 72.4121 31.3529 73.0286 31.8345C73.6452 32.3162 74.1564 32.9193 74.5308 33.6065C75.2299 34.8556 75.4885 36.3038 75.2649 37.7181L73.6367 38.5905C73.6367 38.5905 75.9509 44.5584 75.3067 48.1305C74.6625 51.7025 72.6355 56.0574 72.6355 56.0574L63.2066 76.3151C63.2066 76.3151 58.9486 82.1449 53.0649 82.9951C47.1812 83.8454 43.2743 82.3326 43.2743 82.3326L37.7836 84.5263L35.8782 78.8958C35.8782 78.8958 32.194 76.8923 29.0513 71.8294C25.9086 66.7665 27.6347 59.7639 27.6347 59.7639L37.0679 39.4969C37.0679 39.4969 39.0949 35.142 41.4132 32.3491C43.7315 29.5563 49.7877 27.4844 49.7877 27.4844L49.407 25.6769C50.3588 24.5943 51.6491 23.866 53.0674 23.6107C53.8342 23.4547 54.6248 23.4576 55.3904 23.6192C56.1559 23.7808 56.8801 24.0977 57.5184 24.5503L57.7601 26.5591C59.5787 26.5904 63.8028 28.698 63.8028 28.698" stroke="#1D1D1B" stroke-width="2" stroke-miterlimit="10"/>
<path d="M53.5583 23.5165L53.2974 14.9607" stroke="black" stroke-width="5" stroke-miterlimit="10"/>
<path d="M51.8593 18.05C53.5647 18.8438 55.5909 18.1041 56.3851 16.3978C57.1792 14.6916 56.4406 12.665 54.7352 11.8713C53.0299 11.0775 51.0037 11.8172 50.2095 13.5235C49.4154 15.2297 50.154 17.2563 51.8593 18.05Z" fill="black"/>
<path d="M32.3547 49.6715L31.6293 51.2302C31.6293 51.2302 23.3042 52.9253 19.9024 44.821C17.9576 40.2476 17.5654 27.391 21.1345 21.9594L23.1377 36.5452L32.3547 49.6715Z" fill="#F2F2F0" stroke="#222222" stroke-width="0.5" stroke-miterlimit="10"/>
<path d="M39.5173 35.0611C38.6268 36.4972 37.8154 37.9809 37.0866 39.5054L36.2551 41.2921L28.359 25.3276L25.4691 19.454C30.9128 19.4519 36.7418 26.8633 39.5173 35.0611Z" fill="#F2F2F0" stroke="#222222" stroke-width="0.5" stroke-miterlimit="10"/>
<path d="M36.255 41.2921L34.28 45.5353L26.8184 31.9072L28.3589 25.3276L36.255 41.2921Z" fill="#F2F2F0" stroke="#222222" stroke-width="0.5" stroke-miterlimit="10"/>
<path d="M34.28 45.5354L32.3548 49.6716L23.1377 36.5453L21.1346 21.9595C21.7959 20.8203 22.8736 19.9824 24.1403 19.6225C24.5736 19.5201 25.0173 19.4683 25.4625 19.4681L28.3524 25.3417L26.8119 31.9212L34.28 45.5354Z" fill="#F2F2F0" stroke="#222222" stroke-width="0.5" stroke-miterlimit="10"/>
<path d="M89.1417 53.5962L85.0882 59.0231L69.8566 62.0887L71.8489 57.8083L89.1417 53.5962Z" fill="#F2F2F0" stroke="#222222" stroke-width="0.5" stroke-miterlimit="10"/>
<path d="M79.6789 72.6383C71.269 75.2449 67.2244 67.7923 67.2244 67.7923L67.9499 66.2337L83.9279 64.8344L96.3777 56.9757C94.4991 63.1997 84.4118 71.1731 79.6789 72.6383Z" fill="#F2F2F0" stroke="#222222" stroke-width="0.5" stroke-miterlimit="10"/>
<path d="M96.3779 56.9757L83.9094 64.8257L67.9314 66.2251L69.8566 62.0888L85.0883 59.0232L89.1417 53.5964L95.4789 52.0515C95.7647 52.3927 96.0107 52.7655 96.2121 53.1626C96.7607 54.3636 96.8202 55.7312 96.3779 56.9757Z" fill="#F2F2F0" stroke="#222222" stroke-width="0.5" stroke-miterlimit="10"/>
<path d="M95.4788 52.0512L89.1417 53.5961L71.8489 57.8082L72.6631 56.0588C73.3712 54.496 73.9917 52.895 74.5218 51.2632C82.555 48.1529 91.9938 47.8818 95.4788 52.0512Z" fill="#F2F2F0" stroke="#222222" stroke-width="0.5" stroke-miterlimit="10"/>
<path d="M74.2868 33.1587L81.0033 27.8449" stroke="black" stroke-width="5" stroke-miterlimit="10"/>
<path d="M79.5652 30.9344C81.2705 31.7282 83.2967 30.9885 84.0909 29.2822C84.885 27.576 84.1464 25.5494 82.441 24.7557C80.7357 23.9619 78.7095 24.7016 77.9153 26.4079C77.1212 28.1141 77.8598 30.1407 79.5652 30.9344Z" fill="black"/>
<path d="M67.9467 66.1925L64.5078 73.5809C57.4438 78.0367 47.7903 74.053 47.7903 74.053L41.2494 77.0201L39.3472 70.1062C39.3472 70.1062 30.0835 65.285 28.9445 57.0111L32.3748 49.6412C32.1996 56.1317 43.2085 61.8105 43.2085 61.8105L45.1497 68.7256L51.6648 65.7408C51.6648 65.7408 63.0909 70.4987 67.9467 66.1925Z" fill="#222222"/>
<path d="M68.6011 37.822C67.2022 37.035 61.0119 34.2896 61.0119 34.2896C60.5469 34.0731 54.8955 31.3125 53.4506 30.7702C52.0057 30.2279 43.8437 33.9066 41.6088 38.7081L37.8407 46.8038C36.6518 49.3581 41.5913 53.9157 50.0734 57.8637C58.5415 61.8051 65.1973 62.6388 66.384 60.0891L70.1521 51.9935C72.387 47.192 70 38.6089 68.6011 37.822Z" fill="#222222"/>
<path d="M39.7138 34.6997C38.7812 36.1869 37.9344 37.7262 37.1775 39.3101L31.7203 51.0348C31.7203 51.0348 23.3952 52.7299 19.9934 44.6256C18.0421 40.0662 17.6651 27.177 21.2255 21.764C21.8869 20.6248 22.9645 19.7869 24.2313 19.427C24.6655 19.3253 25.1097 19.2719 25.5556 19.268C31.0192 19.2354 36.9382 26.5019 39.7138 34.6997Z" stroke="black" stroke-width="2" stroke-miterlimit="10"/>
<path d="M79.6239 72.805C71.214 75.4117 67.1694 67.9591 67.1694 67.9591L72.6267 56.2344C73.3241 54.6952 73.9368 53.1191 74.4621 51.513C82.5217 48.3583 91.9455 48.0463 95.4445 52.2222C95.731 52.563 95.9771 52.9358 96.1777 53.3333C96.7101 54.5358 96.7554 55.8982 96.3041 57.1338C94.455 63.3432 84.3568 71.3398 79.6239 72.805Z" stroke="black" stroke-width="2" stroke-miterlimit="10"/>
<path d="M60.5104 43.1502C61.1536 41.8015 63.459 42.8897 62.972 44.2118L59.5057 52.2494C58.7894 53.2811 56.651 52.6697 57.044 51.1878L60.5104 43.1502Z" fill="#F2F2F0"/>
<path d="M53.3375 40.0604C53.8739 38.6657 51.5032 37.7372 50.8759 38.9988L47.4095 47.0364C47.1495 48.2685 49.0632 49.401 49.8711 48.098L53.3375 40.0604Z" fill="#F2F2F0"/>
<circle cx="74.5" cy="111.5" r="22" stroke="#F3C10E" stroke-width="5"/>
<path d="M77.168 119.086H72.8125L71.6211 97.9922H78.3789L77.168 119.086ZM78.3398 124.008C78.3398 124.477 78.2487 124.919 78.0664 125.336C77.8971 125.74 77.6628 126.091 77.3633 126.391C77.0638 126.69 76.7122 126.924 76.3086 127.094C75.9049 127.276 75.4753 127.367 75.0195 127.367C74.5508 127.367 74.1146 127.276 73.7109 127.094C73.3073 126.924 72.9492 126.69 72.6367 126.391C72.3372 126.091 72.0964 125.74 71.9141 125.336C71.7448 124.919 71.6602 124.477 71.6602 124.008C71.6602 123.552 71.7448 123.122 71.9141 122.719C72.0964 122.315 72.3372 121.964 72.6367 121.664C72.9492 121.365 73.3073 121.13 73.7109 120.961C74.1146 120.779 74.5508 120.688 75.0195 120.688C75.4753 120.688 75.9049 120.779 76.3086 120.961C76.7122 121.13 77.0638 121.365 77.3633 121.664C77.6628 121.964 77.8971 122.315 78.0664 122.719C78.2487 123.122 78.3398 123.552 78.3398 124.008Z" fill="#F3C10E"/>
</svg>
