<svg width="177" height="155" viewBox="0 0 177 155" fill="none" xmlns="http://www.w3.org/2000/svg">
<path d="M88.5964 24.0162C88.5964 24.0162 98.4993 23.7469 101.987 25.2977L104.226 21.6899C105.841 21.394 107.499 21.4325 109.099 21.8029C110.698 22.1734 112.205 22.868 113.526 23.8438C115.962 25.6012 117.736 28.1276 118.563 31.0164L116.238 34.118C116.238 34.118 125.926 43.4229 127.863 50.7893C129.801 58.1557 129.801 68.236 129.801 68.236V115.127C129.801 115.127 126.862 129.989 116.421 136.816C105.98 143.644 97.2076 144.226 97.2076 144.226L88.704 153.262L80.0929 144.237C80.0929 144.237 71.3095 143.687 60.8469 136.838C50.3843 129.989 47.4673 115.137 47.4673 115.137V68.2252C47.4673 68.2252 47.4673 58.1449 49.4048 50.7785C51.3423 43.4121 61.0299 34.1072 61.0299 34.1072L58.7049 31.0056C59.5571 28.103 61.3669 25.5748 63.8393 23.8331C65.16 22.8572 66.6667 22.1626 68.2663 21.7922C69.8659 21.4217 71.5243 21.3832 73.1394 21.6792L75.3783 25.287C78.8658 23.7362 88.7686 24.0054 88.7686 24.0054" fill="#F3C10E"/>
<path d="M88.5964 24.0162C88.5964 24.0162 98.4993 23.7469 101.987 25.2977L104.226 21.6899C105.841 21.394 107.499 21.4325 109.099 21.8029C110.698 22.1734 112.205 22.868 113.526 23.8439C115.962 25.6012 117.736 28.1276 118.563 31.0164L116.238 34.118C116.238 34.118 125.926 43.4229 127.863 50.7893C129.801 58.1557 129.801 68.236 129.801 68.236V115.127C129.801 115.127 126.862 129.989 116.421 136.816C105.98 143.644 97.2076 144.226 97.2076 144.226L88.704 153.262L80.0929 144.237C80.0929 144.237 71.3095 143.687 60.8469 136.838C50.3843 129.989 47.4673 115.137 47.4673 115.137V68.2252C47.4673 68.2252 47.4673 58.1449 49.4048 50.7785C51.3423 43.4121 61.0299 34.1072 61.0299 34.1072L58.7049 31.0056C59.5571 28.103 61.3669 25.5748 63.8393 23.8331C65.16 22.8572 66.6667 22.1626 68.2663 21.7922C69.8659 21.4217 71.5243 21.3832 73.1394 21.6792L75.3783 25.287C78.8658 23.7362 88.7686 24.0054 88.7686 24.0054" stroke="#1D1D1B" stroke-width="2" stroke-miterlimit="10"/>
<path d="M64.6897 23.2192L56.6167 7.17261" stroke="black" stroke-width="5" stroke-miterlimit="10"/>
<path d="M56.6168 14.3235C60.5641 14.3235 63.764 11.1218 63.764 7.17247C63.764 3.22309 60.5641 0.0214844 56.6168 0.0214844C52.6694 0.0214844 49.4695 3.22309 49.4695 7.17247C49.4695 11.1218 52.6694 14.3235 56.6168 14.3235Z" fill="black"/>
<path d="M47.5104 91.7567V95.3645C47.5104 95.3645 33.1728 105.962 19.524 93.5552C11.774 86.5765 -0.357009 62.4635 1.62356 48.9692L18.3508 74.9454L47.5104 91.7567Z" fill="#F2F2F0" stroke="#222222" stroke-width="0.5" stroke-miterlimit="10"/>
<path d="M48.1992 57.6171C47.7767 61.1379 47.5467 64.6792 47.5103 68.2251V72.3606L18.3508 48.9799L7.65137 40.3643C18.0063 35.5395 35.6592 44.4783 48.1992 57.6171Z" fill="#F2F2F0" stroke="#222222" stroke-width="0.5" stroke-miterlimit="10"/>
<path d="M47.5104 72.3607V82.1825L21.2463 62.8619L18.3508 48.98L47.5104 72.3607Z" fill="#F2F2F0" stroke="#222222" stroke-width="0.5" stroke-miterlimit="10"/>
<path d="M47.5103 82.1825V91.7566L18.3507 74.9453L1.62354 48.9692C1.87292 46.2162 3.18123 43.6677 5.27252 41.8613C6.00624 41.2827 6.80451 40.7912 7.65136 40.3966L18.3507 49.0123L21.2462 62.8942L47.5103 82.1825Z" fill="#F2F2F0" stroke="#222222" stroke-width="0.5" stroke-miterlimit="10"/>
<path d="M159.025 48.9369L156.119 62.8512L129.855 82.1717V72.2638L159.025 48.9369Z" fill="#F2F2F0" stroke="#222222" stroke-width="0.5" stroke-miterlimit="10"/>
<path d="M157.884 93.5443C144.192 105.951 129.898 95.3536 129.898 95.3536V91.7458L159.057 74.9345L175.785 48.9584C177.722 62.4634 165.591 86.5657 157.884 93.5443Z" fill="#F2F2F0" stroke="#222222" stroke-width="0.5" stroke-miterlimit="10"/>
<path d="M175.785 48.9584L159.014 74.9346L129.855 91.7459V82.1717L156.119 62.8512L159.025 48.9369L169.714 40.3859C170.56 40.7821 171.358 41.2735 172.093 41.8505C174.2 43.6496 175.524 46.1991 175.785 48.9584Z" fill="#F2F2F0" stroke="#222222" stroke-width="0.5" stroke-miterlimit="10"/>
<path d="M169.714 40.3858L159.025 48.9368L129.855 72.2637V68.2143C129.818 64.6141 129.581 61.0186 129.144 57.4448C141.674 44.4136 159.391 35.5395 169.714 40.3858Z" fill="#F2F2F0" stroke="#222222" stroke-width="0.5" stroke-miterlimit="10"/>
<path d="M112.665 23.2084L120.738 7.151" stroke="black" stroke-width="5" stroke-miterlimit="10"/>
<path d="M120.738 14.302C124.685 14.302 127.885 11.1004 127.885 7.15098C127.885 3.2016 124.685 0 120.738 0C116.79 0 113.59 3.2016 113.59 7.15098C113.59 11.1004 116.79 14.302 120.738 14.302Z" fill="black"/>
<path d="M129.855 91.6704V108.772C120.361 123.505 98.4669 124.474 98.4669 124.474L88.6501 135.912L78.9087 124.442C78.9087 124.442 57.0148 123.473 47.521 108.74V91.6812C52.9353 104.185 78.9087 105.24 78.9087 105.24L88.7255 116.677L98.4776 105.229C98.4776 105.229 124.43 104.163 129.855 91.6704Z" fill="#222222"/>
<path d="M106.206 37.1442C102.848 36.8857 88.6395 37.1442 88.6395 37.1442C87.5631 37.1442 74.3665 36.8965 71.1373 37.1442C67.9081 37.3919 55.6372 51.6185 55.6372 62.7326V81.4717C55.6372 87.3841 69.0706 91.6812 88.7041 91.6812C108.305 91.6812 121.706 87.3734 121.706 81.4717V62.7326C121.706 51.6185 109.565 37.4026 106.206 37.1442ZM78.9089 72.8237C78.7967 73.6103 78.3787 74.3208 77.7458 74.8007C77.1129 75.2807 76.3163 75.4913 75.529 75.3869C74.7605 75.3958 74.0113 75.1457 73.4021 74.6769C72.7929 74.208 72.3591 73.5477 72.1707 72.8022V50.8538C72.1707 50.8538 72.2998 48.1399 75.5936 48.1399C78.8874 48.1399 78.9089 50.8538 78.9089 50.8538V72.8237ZM105.195 72.8237C105.001 73.5689 104.562 74.2271 103.949 74.6921C103.336 75.1572 102.584 75.4019 101.815 75.3869C101.028 75.4848 100.234 75.2684 99.6049 74.7846C98.9762 74.3008 98.5635 73.5885 98.4563 72.8022V50.843C98.4563 50.843 98.4563 48.1291 101.75 48.1291C105.044 48.1291 105.173 50.843 105.173 50.843L105.195 72.8237Z" fill="#222222"/>
<path d="M78.9089 50.8538C78.9089 50.8538 78.9089 48.1399 75.6151 48.1399C72.3213 48.1399 72.1921 50.8538 72.1921 50.8538V72.8237C72.3838 73.5616 72.8161 74.2144 73.4206 74.6787C74.025 75.143 74.767 75.3922 75.529 75.3869C76.3162 75.4913 77.1129 75.2807 77.7458 74.8007C78.3786 74.3208 78.7966 73.6103 78.9089 72.8237V50.8538Z" fill="#F2F2F0"/>
<path d="M98.4563 50.8431C98.4563 50.8431 98.4563 48.1292 101.75 48.1292C105.044 48.1292 105.173 50.8431 105.173 50.8431V72.813C104.982 73.5565 104.548 74.2144 103.939 74.6812C103.33 75.1479 102.582 75.3965 101.815 75.3869C101.028 75.4849 100.234 75.2685 99.6049 74.7846C98.9762 74.3008 98.5635 73.5885 98.4563 72.8022V50.8431Z" fill="#F2F2F0"/>
<path d="M48.2531 56.7555C47.7959 60.4108 47.5479 64.0892 47.5104 67.7728V94.9121C47.5104 94.9121 33.1728 105.509 19.524 93.1028C11.774 86.1564 -0.357009 61.968 1.62356 48.5168C1.87295 45.7638 3.18126 43.2154 5.27255 41.4089C6.00865 40.8308 6.80645 40.336 7.65138 39.9335C18.0171 35.0334 35.7131 43.6167 48.2531 56.7555Z" stroke="black" stroke-width="2" stroke-miterlimit="10"/>
<path d="M157.927 93.9105C144.235 106.317 129.941 95.7198 129.941 95.7198V68.5805C129.905 65.0346 129.675 61.4933 129.252 57.9725C141.792 44.8337 159.445 35.8949 169.8 40.7412C170.647 41.1358 171.445 41.6273 172.179 42.2059C174.256 44.0222 175.549 46.5741 175.785 49.3246C177.765 62.7757 165.634 86.9319 157.927 93.9105Z" stroke="black" stroke-width="2" stroke-miterlimit="10"/>
</svg>
