<svg width="169" height="165" viewBox="0 0 169 165" fill="none" xmlns="http://www.w3.org/2000/svg">
<path d="M68.6121 66.7634C68.6121 66.7634 73.1736 65.548 74.9613 65.8829L75.602 63.9636C76.3182 63.6486 77.0913 63.4838 77.8737 63.4793C78.6561 63.4749 79.4311 63.631 80.151 63.938C81.474 64.4845 82.5748 65.4603 83.2764 66.7086L82.5401 68.4026C82.5401 68.4026 88.0562 71.6497 89.7658 74.8515C91.4753 78.0533 92.5855 82.7268 92.5855 82.7268L97.7496 104.466C97.7496 104.466 98.024 111.68 93.9353 115.996C89.8465 120.311 85.8434 121.547 85.8434 121.547L82.8961 126.673L77.9098 123.437C77.9098 123.437 73.7771 124.15 68.1721 122.126C62.5671 120.103 59.5791 113.539 59.5791 113.539L54.4125 91.7894C54.4125 91.7894 53.3023 87.1159 53.3894 83.4873C53.4764 79.8587 56.943 74.4778 56.943 74.4778L55.5234 73.2959C55.5989 71.8563 56.1595 70.4849 57.114 69.4051C57.6188 68.8072 58.2409 68.3192 58.9417 67.9713C59.6424 67.6234 60.4071 67.4229 61.1885 67.3823L62.6238 68.8083C64.0699 67.7053 68.6908 66.7395 68.6908 66.7395" fill="#F3C10E"/>
<path d="M68.6121 66.7634C68.6121 66.7634 73.1736 65.548 74.9613 65.8829L75.602 63.9636C76.3182 63.6486 77.0913 63.4838 77.8737 63.4793C78.6561 63.4749 79.4311 63.631 80.151 63.938C81.474 64.4845 82.5748 65.4603 83.2764 66.7086L82.5401 68.4026C82.5401 68.4026 88.0562 71.6497 89.7658 74.8515C91.4753 78.0533 92.5855 82.7268 92.5855 82.7268L97.7496 104.466C97.7496 104.466 98.024 111.68 93.9353 115.996C89.8465 120.311 85.8434 121.547 85.8434 121.547L82.8961 126.673L77.9098 123.437C77.9098 123.437 73.7771 124.15 68.1721 122.126C62.5671 120.103 59.5791 113.539 59.5791 113.539L54.4125 91.7894C54.4125 91.7894 53.3023 87.1159 53.3894 83.4873C53.4764 79.8587 56.943 74.4778 56.943 74.4778L55.5234 73.2959C55.5989 71.8563 56.1595 70.4849 57.114 69.4051C57.6188 68.8072 58.2409 68.3192 58.9417 67.9713C59.6424 67.6234 60.4071 67.4229 61.1885 67.3823L62.6238 68.8083C64.0699 67.7053 68.6908 66.7395 68.6908 66.7395" stroke="#1D1D1B" stroke-width="2" stroke-miterlimit="10"/>
<path d="M57.4407 69.0268L51.9307 62.4763" stroke="black" stroke-width="5" stroke-miterlimit="10"/>
<path d="M52.7181 65.7917C54.5482 65.357 55.6791 63.5202 55.2442 61.6892C54.8092 59.8582 52.9731 58.7262 51.143 59.161C49.3129 59.5957 48.1819 61.4325 48.6169 63.2635C49.0519 65.0945 50.888 66.2264 52.7181 65.7917Z" fill="black"/>
<path d="M57.0241 102.694L57.4214 104.367C57.4214 104.367 51.9412 110.859 44.247 106.61C39.8853 104.228 31.6055 94.3851 31.0376 87.9107L41.6535 98.1117L57.0241 102.694Z" fill="#F2F2F0" stroke="#222222" stroke-width="0.5" stroke-miterlimit="10"/>
<path d="M53.5835 86.7906C53.7754 88.4695 54.0588 90.1366 54.4324 91.7846L54.8879 93.7019L38.7938 86.0735L32.8845 83.2574C37.1539 79.8801 46.3227 82.0802 53.5835 86.7906Z" fill="#F2F2F0" stroke="#222222" stroke-width="0.5" stroke-miterlimit="10"/>
<path d="M54.888 93.702L55.9697 98.2557L41.6652 92.1907L38.7939 86.0736L54.888 93.702Z" fill="#F2F2F0" stroke="#222222" stroke-width="0.5" stroke-miterlimit="10"/>
<path d="M55.9697 98.2556L57.0241 102.694L41.6536 98.1117L31.0376 87.9107C30.8501 86.6069 31.1759 85.2813 31.9466 84.2135C32.223 83.8644 32.539 83.5486 32.8881 83.2724L38.7975 86.0885L41.6688 92.2056L55.9697 98.2556Z" fill="#F2F2F0" stroke="#222222" stroke-width="0.5" stroke-miterlimit="10"/>
<path d="M104.009 70.5608L104.194 77.3319L94.1451 89.1819L93.0539 84.5883L104.009 70.5608Z" fill="#F2F2F0" stroke="#222222" stroke-width="0.5" stroke-miterlimit="10"/>
<path d="M108.393 91.3676C103.411 98.6274 95.6169 95.2886 95.6169 95.2886L95.2196 93.6159L106.887 82.6104L111.782 68.7251C114.167 74.7729 111.197 87.2833 108.393 91.3676Z" fill="#F2F2F0" stroke="#222222" stroke-width="0.5" stroke-miterlimit="10"/>
<path d="M111.781 68.7252L106.867 82.6153L95.1996 93.6208L94.1452 89.182L104.194 77.332L104.009 70.5609L108.023 65.4193C108.459 65.5098 108.883 65.6498 109.287 65.8364C110.462 66.4384 111.357 67.4745 111.781 68.7252Z" fill="#F2F2F0" stroke="#222222" stroke-width="0.5" stroke-miterlimit="10"/>
<path d="M108.023 65.4191L104.009 70.5607L93.0539 84.5882L92.6079 82.7108C92.1944 81.0457 91.6885 79.4049 91.0925 77.7961C95.4662 70.3746 102.703 64.3091 108.023 65.4191Z" fill="#F2F2F0" stroke="#222222" stroke-width="0.5" stroke-miterlimit="10"/>
<path d="M79.6818 63.7382L81.6562 55.4045" stroke="black" stroke-width="5" stroke-miterlimit="10"/>
<path d="M82.4437 58.7199C84.2738 58.2852 85.4047 56.4484 84.9698 54.6174C84.5348 52.7864 82.6987 51.6545 80.8686 52.0892C79.0385 52.5239 77.9075 54.3607 78.3425 56.1917C78.7774 58.0227 80.6136 59.1547 82.4437 58.7199Z" fill="black"/>
<path d="M95.1916 93.5856L97.075 101.515C94.296 109.391 84.2522 112.251 84.2522 112.251L80.9606 118.635L75.1811 114.39C75.1811 114.39 64.9238 116.352 58.8997 110.567L57.021 102.658C60.9082 107.859 73.0663 105.488 73.0663 105.488L78.8772 109.709L82.1377 103.327C82.1377 103.327 94.0522 99.975 95.1916 93.5856Z" fill="#222222"/>
<path d="M78.113 70.9221C76.5275 71.1721 69.9686 72.8568 69.9686 72.8568C69.4695 72.9753 63.324 74.3138 61.8541 74.7843C60.3843 75.2548 56.262 83.202 57.486 88.3548L59.5498 97.0426C60.201 99.7838 66.9023 100.297 76.0048 98.1343C85.0924 95.9756 90.831 92.5025 90.181 89.7663L88.1173 81.0784C86.8932 75.9256 79.6984 70.6721 78.113 70.9221Z" fill="#222222"/>
<path d="M53.5137 86.3852C53.7043 88.1302 53.9944 89.8629 54.3827 91.5749L57.3716 104.157C57.3716 104.157 51.8915 110.649 44.1972 106.401C39.8391 104.034 31.551 94.1554 30.9878 87.701C30.8002 86.3971 31.1261 85.0715 31.8968 84.0037C32.1744 83.6546 32.4897 83.3373 32.8371 83.0577C37.1033 79.6442 46.2528 81.6748 53.5137 86.3852Z" stroke="black" stroke-width="2" stroke-miterlimit="10"/>
<path d="M108.453 91.5326C103.472 98.7924 95.6771 95.4536 95.6771 95.4536L92.6882 82.8712C92.281 81.2312 91.7843 79.6147 91.2005 78.0289C95.5674 70.5564 102.767 64.468 108.102 65.5745C108.538 65.6642 108.962 65.8041 109.366 65.9916C110.529 66.6048 111.41 67.6456 111.822 68.8948C114.221 74.913 111.258 87.4483 108.453 91.5326Z" stroke="black" stroke-width="2" stroke-miterlimit="10"/>
<path d="M81.7072 81.3166C83.1521 80.9358 83.8114 83.3985 82.4877 83.8812L74.1137 86.4297C72.8635 86.5497 71.9483 84.5226 73.3332 83.865L81.7072 81.3166Z" fill="#F2F2F0"/>
<path d="M66.8709 82.5728C66.4269 81.1459 63.9912 81.8875 64.2814 83.2663L66.5459 91.7215C67.1059 92.8494 69.3095 92.5512 69.1354 91.028L66.8709 82.5728Z" fill="#F2F2F0"/>
<path d="M102 30.8334C99.4829 30.8334 96.9906 31.3291 94.6652 32.2923C92.3397 33.2556 90.2268 34.6674 88.447 36.4472C84.8526 40.0416 82.8333 44.9167 82.8333 50C82.8333 55.0834 84.8526 59.9585 88.447 63.5529C90.2268 65.3327 92.3397 66.7445 94.6652 67.7077C96.9906 68.6709 99.4829 69.1667 102 69.1667C107.083 69.1667 111.958 67.1474 115.553 63.5529C119.147 59.9585 121.167 55.0834 121.167 50C121.167 47.483 120.671 44.9907 119.708 42.6653C118.744 40.3399 117.333 38.227 115.553 36.4472C113.773 34.6674 111.66 33.2556 109.335 32.2923C107.009 31.3291 104.517 30.8334 102 30.8334ZM110.376 37.925C112.331 37.8675 113.787 38.7492 113.902 40.11C113.922 40.7042 113.577 41.8542 112.388 41.8925C111.487 41.9309 110.874 41.375 110.855 40.5892C110.836 40.2825 111.353 39.305 111.353 39.1325C111.334 38.615 110.567 38.5959 110.357 38.615C107.482 38.7109 106.715 42.5825 106.102 45.745L105.833 47.4125C107.443 47.6617 108.632 47.355 109.283 46.9334C110.203 46.3392 109.015 45.7259 109.168 45.0359C109.322 44.3267 109.954 44.0009 110.452 43.9817C111.162 43.9625 111.66 44.6909 111.641 45.4384C111.583 46.665 109.992 48.3517 106.792 48.275C106.37 48.275 106.006 48.2367 105.661 48.1984C104.492 54.14 103.763 57.6667 101.157 60.695C98.9141 63.3592 96.6333 63.7617 95.6174 63.8C93.7008 63.8767 92.4166 62.8609 92.4166 61.5C92.3591 60.1967 93.5091 59.4684 94.2758 59.4492C95.2916 59.4109 96.0008 60.1584 96.0199 61.0017C96.0583 61.7109 95.6749 61.9409 95.4258 62.075C95.2916 62.2092 95.0041 62.3625 95.0233 62.65C95.0233 62.7842 95.1574 63.0717 95.5791 63.0525C96.3841 63.0334 96.9016 62.6309 97.2849 62.3625C99.1249 60.8292 99.8533 58.1267 100.792 53.22C101.291 50.4409 101.655 48.6584 102.192 46.895C100.888 45.9175 100.083 44.6909 98.3391 44.25C97.1316 43.8859 96.4033 44.1734 95.8858 44.825C95.2916 45.6109 95.4833 46.6075 96.0583 47.2017C98.2624 49.655 98.9141 50.7284 98.6649 52.185C98.2816 54.5042 95.5216 56.2675 92.2633 55.2709C89.4841 54.4084 88.9666 52.4534 89.2924 51.3609C89.5991 50.4217 90.3466 50.23 91.0941 50.46C91.8991 50.7092 92.2058 51.6675 91.9758 52.415C91.9374 52.4917 91.5541 53.2009 91.4583 53.4309C91.2858 54.025 92.0908 54.4275 92.6466 54.6C93.8924 54.9834 95.0999 54.3317 95.3874 53.3159C95.6749 52.3959 95.0999 51.7442 94.8508 51.495C93.1449 49.6167 91.9566 47.9492 92.5316 46.0709C92.7616 45.3617 93.2216 44.595 93.9116 44.0775C95.3491 43.0234 96.9208 42.8317 98.3966 43.2917C100.332 43.8092 101.252 45.0934 102.46 46.0709C103.131 44.1159 104.07 42.18 105.469 40.5509C106.734 39.075 108.421 38.0017 110.376 37.925Z" fill="#F3C10E"/>
</svg>
